<svg width="100" height="100" viewBox="0 0 100 100" fill="none" xmlns="http://www.w3.org/2000/svg">
<circle cx="50" cy="50" r="50" fill="white"/>
<path d="M69.3908 50.0893C68.9642 50.0284 68.5372 49.9797 68.1014 49.9472L64.7772 42.2357C63.5635 39.4268 61.0723 37.1507 57.941 35.9915L43.1412 30.5069L39.1264 27.9734L40.4783 26.301C40.9945 25.6627 40.8278 24.7751 40.1054 24.3188L33.6922 20.265C33.3455 20.0458 32.9147 19.9573 32.4941 20.0194C32.0735 20.0811 31.6983 20.2882 31.4503 20.5947L16.2998 39.3359C16.0518 39.6424 15.9517 40.0233 16.0219 40.3952C16.0922 40.7671 16.3259 41.0988 16.6726 41.3181L23.0859 45.371C23.3692 45.5496 23.6957 45.6357 24.019 45.6357C24.5205 45.6357 25.0141 45.429 25.3277 45.0409L27.2458 42.6681L30.0741 44.4558C30.8198 44.926 31.3934 45.5707 31.7341 46.3219L33.6853 50.6119C34.2542 51.8673 35.2144 52.9469 36.4612 53.733L49.5444 61.9894L51.4134 63.1709C51.4166 63.1709 51.4166 63.1709 51.4166 63.1709C51.4175 63.1714 51.418 63.1718 51.4189 63.1726C51.4295 63.1795 51.4414 63.186 51.4524 63.1925C51.4712 63.2038 51.4896 63.2152 51.5098 63.2278C51.5787 63.2696 51.6499 63.3053 51.7197 63.3443C51.7954 63.3869 51.8703 63.4316 51.9479 63.4714C51.9975 63.497 52.0489 63.5189 52.099 63.5433C52.217 63.6001 52.3359 63.6549 52.4567 63.7053C52.4613 63.7069 52.4654 63.7093 52.4696 63.711C52.4696 63.7105 52.4696 63.7105 52.4696 63.7101C53.3255 64.063 54.2586 64.2493 55.2216 64.2493C56.3333 64.2493 57.4092 63.9927 58.3621 63.5331C58.3653 63.5315 58.3681 63.5299 58.3713 63.5282C58.3584 63.5753 58.3433 63.622 58.3313 63.6695C58.3042 63.7779 58.2803 63.8872 58.2583 63.9972C58.2367 64.106 58.2193 64.216 58.2032 64.3261C58.1862 64.4438 58.1692 64.5612 58.1582 64.6801C58.1444 64.8295 58.1371 64.9802 58.1334 65.1312C58.132 65.1864 58.1242 65.2408 58.1242 65.2965C58.1242 66.6514 58.538 67.947 59.2966 69.0842C59.3769 69.2048 59.4527 69.3274 59.5409 69.4444C59.5533 69.4606 59.568 69.4752 59.5804 69.4911C59.7232 69.677 59.8738 69.8589 60.0363 70.0343C60.2136 70.2252 60.4023 70.4095 60.6026 70.5861C60.929 70.8748 61.284 71.1257 61.6518 71.3588C62.3076 71.7745 63.0161 72.1111 63.7706 72.3462V74.4689C63.7706 75.0296 64.2845 75.4839 64.9186 75.4839C65.3939 75.4839 65.8017 75.2286 65.9762 74.8644C66.0345 74.743 66.0666 74.609 66.0666 74.4689V72.7571V72.7555C66.2099 72.7632 66.3532 72.7709 66.4974 72.7742C66.5268 72.775 66.5557 72.7778 66.5855 72.7778C66.6186 72.7778 66.6512 72.7746 66.6843 72.7738C66.8248 72.7701 66.9648 72.7632 67.1044 72.7555V74.4689C67.1044 75.0296 67.6183 75.4839 68.2525 75.4839C68.6488 75.4839 68.9977 75.3065 69.2039 75.0369C69.3279 74.8749 69.4005 74.6792 69.4005 74.4689V72.3466V72.3462C69.5543 72.2983 69.7013 72.2362 69.8514 72.181C70.852 71.8115 71.7782 71.2849 72.5681 70.5865C72.6241 70.537 72.6732 70.483 72.7155 70.4265C72.9928 70.0542 72.9593 69.5581 72.6241 69.2117C72.6048 69.1918 72.5892 69.1699 72.5681 69.1508C72.4409 69.0384 72.2903 68.9616 72.1309 68.9129C71.7286 68.7899 71.2653 68.867 70.9443 69.1508C69.7807 70.1805 68.2323 70.7477 66.5855 70.7477C64.9388 70.7477 63.3904 70.1809 62.2263 69.1508C61.0618 68.1212 60.4202 66.7525 60.4202 65.2965C60.4202 65.0922 60.4359 64.89 60.4611 64.6899C60.4634 64.672 60.4675 64.655 60.4698 64.6371C60.4942 64.4584 60.5282 64.2822 60.5718 64.108C60.58 64.0743 60.5911 64.041 60.6003 64.0073C60.6439 63.8478 60.6948 63.6907 60.7545 63.536C60.7674 63.5031 60.7807 63.4706 60.7945 63.4377C60.8602 63.2769 60.9346 63.1198 61.0172 62.9655C61.031 62.9399 61.0438 62.9143 61.0581 62.8888C61.1049 62.8047 61.1527 62.7211 61.205 62.6387C61.2611 62.5501 61.3207 62.4632 61.3823 62.3772C61.4121 62.3362 61.4388 62.2935 61.47 62.2529C61.5637 62.1303 61.6647 62.0118 61.7703 61.8956C61.8277 61.8323 61.8897 61.7718 61.9503 61.7105C62.0399 61.6203 62.1276 61.529 62.2245 61.4433C62.2254 61.4425 62.2258 61.4417 62.2268 61.4413C62.2268 61.4413 62.2272 61.4413 62.2272 61.4409C62.4302 61.2614 62.6488 61.1015 62.8733 60.9508C63.7486 60.3637 64.7749 59.9967 65.8683 59.885C66.1052 59.8607 66.344 59.8448 66.586 59.8448C66.9428 59.8448 67.2932 59.8765 67.638 59.9285C67.6913 59.9366 67.7455 59.9402 67.7983 59.9496C67.8378 59.9565 67.8759 59.9678 67.9149 59.9756C69.0538 60.196 70.1008 60.695 70.9452 61.4413C71.2254 61.689 71.6143 61.7819 71.9762 61.7202C72.1934 61.6829 72.4005 61.5903 72.569 61.4413C72.5929 61.4202 72.6108 61.3954 72.6324 61.3727C72.9703 61.0166 72.9905 60.5083 72.6893 60.1355C72.653 60.0905 72.6149 60.0462 72.5695 60.0056C71.8522 59.3714 71.0242 58.876 70.1297 58.5127C69.8909 58.4156 69.6503 58.323 69.4023 58.2459V58.2467V56.1244C69.4023 55.9141 69.3298 55.7188 69.2062 55.5568C69 55.2868 68.6506 55.1094 68.2543 55.1094C67.6201 55.1094 67.1063 55.5637 67.1063 56.1244V57.8383C67.1058 57.8383 67.1058 57.8383 67.1054 57.8383C66.9414 57.8293 66.7775 57.8184 66.6122 57.8171C66.6039 57.8171 66.5956 57.8159 66.5869 57.8159C66.5741 57.8159 66.5612 57.8176 66.5483 57.8176C66.3872 57.8192 66.2278 57.8297 66.068 57.8383V56.1244C66.068 55.984 66.0359 55.8504 65.9776 55.729C65.8031 55.3648 65.3953 55.1094 64.92 55.1094C64.2858 55.1094 63.772 55.5637 63.772 56.1244V58.2471C63.5107 58.3283 63.2563 58.425 63.0051 58.5281C62.9537 58.5492 62.9018 58.5695 62.8508 58.5918C62.5992 58.7006 62.353 58.8192 62.1143 58.9503C62.061 58.9796 62.0109 59.0137 61.9581 59.0441C61.8305 59.1176 61.7074 59.198 61.5839 59.278C61.5839 59.2752 61.5843 59.2723 61.5848 59.2695C61.701 57.6239 60.89 55.9633 59.2635 54.9389L58.9081 54.7143C58.9085 54.7143 58.9085 54.7139 58.909 54.7135C59.5441 54.353 60.215 54.0379 60.9148 53.7679C60.935 53.7602 60.9552 53.7525 60.9754 53.7447C61.1853 53.6648 61.3984 53.5892 61.6133 53.5174C61.6468 53.5064 61.6803 53.4955 61.7138 53.4845C61.9581 53.4053 62.2043 53.3326 62.4536 53.2656C62.4711 53.2608 62.4885 53.2559 62.5064 53.2514C62.7668 53.1828 63.0304 53.1199 63.299 53.0647C63.5525 53.0078 63.8069 52.9632 64.0682 52.9242C64.0976 52.9197 64.1265 52.914 64.1559 52.9096C64.2408 52.8962 64.3258 52.8844 64.4103 52.8738C64.6077 52.8454 64.8052 52.8251 65.0073 52.8048C65.077 52.7979 65.1501 52.7926 65.2222 52.7865C65.6947 52.748 66.1727 52.7273 66.6572 52.7301C66.7155 52.7301 66.7724 52.7277 66.8312 52.7329C66.9001 52.7382 66.9685 52.7394 67.0365 52.737C67.7221 52.7541 68.3944 52.8182 69.0529 52.9185C75.7113 53.962 80.7856 59.1144 80.7856 65.2981C80.7856 72.2248 74.4072 77.8645 66.5731 77.8645C58.7345 77.8645 52.3561 72.2248 52.3561 65.2981C52.3561 65.1235 52.3607 64.9489 52.3699 64.7784C51.8464 64.5957 51.3459 64.3602 50.8775 64.0719C50.8316 64.0475 50.7902 64.0232 50.7489 63.9948L50.6708 63.946L49.3208 63.0934C49.2014 63.8121 49.1417 64.551 49.1417 65.2981C49.1417 73.7921 56.962 80.7066 66.5731 80.7066C76.1797 80.7066 84 73.7921 84 65.2981C83.9982 57.6495 77.6611 51.283 69.3908 50.0893ZM23.6475 42.2328L19.8494 39.8324L33.1306 23.404L36.9287 25.8044L23.6475 42.2328ZM55.2211 61.4076C54.5314 61.4076 53.8711 61.2229 53.3117 60.8729C53.2874 60.8578 53.2635 60.8436 53.2383 60.8298L38.3279 51.4199C37.5821 50.9497 37.0086 50.3049 36.6683 49.5538L34.7171 45.2634C34.1477 44.008 33.1875 42.9287 31.9421 42.1431L29.1249 40.3623L37.2593 30.2869L41.4201 32.9126C41.5175 32.9739 41.6222 33.0259 41.7329 33.0665L56.6993 38.6127C59.0233 39.4731 60.873 41.1634 61.774 43.2487L64.6739 49.9765C63.3435 50.1023 62.0445 50.3618 60.7876 50.754L59.6492 48.3447C59.1969 47.3808 58.4512 46.5537 57.4965 45.9548L54.874 44.2979C53.2497 43.2722 51.0768 43.1724 49.3401 44.0441L49.1624 44.133C47.5992 44.9272 46.6073 46.4067 46.5743 47.9947C46.5738 48.0032 46.5738 48.0121 46.5738 48.0207V48.0812C46.5738 49.5473 47.3783 50.9302 48.7256 51.7792L57.3973 57.2532C58.4581 57.9211 58.7047 59.2285 57.9502 60.1656C57.3215 60.9439 56.3016 61.4076 55.2211 61.4076ZM50.5932 49.4669C50.0895 49.1494 49.7887 48.6313 49.7887 48.082V48.0365C49.8052 47.4461 50.1781 46.8956 50.7558 46.602L50.9257 46.5172C51.5792 46.1887 52.3961 46.2269 53.005 46.6114L55.6316 48.2708C56.0973 48.5627 56.4596 48.9655 56.6814 49.4381L57.8675 51.9477C57.8666 51.9481 57.8652 51.9485 57.8643 51.9493C57.2627 52.2579 56.6887 52.5949 56.1331 52.9644C56.1331 52.9644 56.1331 52.9644 56.1326 52.9644L50.5932 49.4669Z" fill="black"/>
</svg>
