<svg width="20" height="10" viewBox="0 0 20 10" fill="none" xmlns="http://www.w3.org/2000/svg">
<path d="M10 10C9.71198 10 9.45853 9.90798 9.23963 9.7137L0.31106 1.60532C0.103687 1.43149 1.86265e-08 1.20654 1.86265e-08 0.940695C1.86265e-08 0.408998 0.449309 0 1.04839 0C1.34793 0 1.60138 0.112474 1.79724 0.276074L10 7.71984L18.2028 0.276074C18.3986 0.112474 18.6636 0 18.9516 0C19.5507 0 20 0.408998 20 0.940695C20 1.20654 19.8963 1.43149 19.7005 1.60532L10.7604 9.7137C10.553 9.90798 10.288 10 10 10Z" fill="black"/>
</svg>
