<svg width="100" height="100" viewBox="0 0 100 100" fill="none" xmlns="http://www.w3.org/2000/svg">
<circle cx="50" cy="50" r="50" fill="white"/>
<path d="M51.0707 47.8019C41.9283 45.7255 38.9882 43.5788 38.9882 40.2355C38.9882 36.3996 43.056 33.725 49.8625 33.725C57.0314 33.725 59.6896 36.7163 59.9312 41.1154H68.832C68.5501 35.0623 64.3212 29.5019 55.9037 27.7071V20H43.8212V27.6015C36.0079 29.0796 29.725 33.5138 29.725 40.3059C29.725 48.4353 37.4175 52.4825 48.6542 54.8403C58.723 56.9519 60.7367 60.0488 60.7367 63.3217C60.7367 65.7499 58.7633 69.6211 49.8625 69.6211C41.5658 69.6211 38.3035 66.3834 37.8605 62.2307H29C29.4833 69.9378 36.0884 74.2665 43.8212 75.7093V83.3461H55.9037V75.7797C63.7574 74.4776 70 70.5009 70 63.2865C70 53.2919 60.2132 49.8782 51.0707 47.8019Z" fill="black"/>
</svg>
