<svg width="437" height="480" viewBox="0 0 437 480" fill="none" xmlns="http://www.w3.org/2000/svg">
<path d="M197 0C149.533 0 103.131 14.0758 63.6632 40.4473C24.1955 66.8188 -6.56595 104.302 -24.731 148.156C-42.896 192.01 -47.6488 240.266 -38.3884 286.822C-29.1279 333.377 -6.27012 376.141 27.2945 409.706C60.8591 443.27 103.623 466.128 150.178 475.388C196.734 484.649 244.99 479.896 288.844 461.731C332.698 443.566 370.181 412.805 396.553 373.337C422.924 333.869 437 287.468 437 240C437 176.348 411.714 115.303 366.706 70.2944C321.697 25.2856 260.652 0 197 0V0ZM197 465C152.499 465 108.998 451.804 71.9968 427.081C34.9957 402.357 6.15693 367.217 -10.8728 326.104C-27.9025 284.99 -32.3583 239.75 -23.6766 196.105C-14.9949 152.459 6.43427 112.368 37.9011 80.901C69.3679 49.4342 109.459 28.005 153.105 19.3233C196.751 10.6416 241.991 15.0974 283.104 32.1271C324.217 49.1568 359.357 77.9956 384.081 114.997C408.804 151.998 422 195.499 422 240C422 299.674 398.295 356.903 356.099 399.099C313.903 441.295 256.674 465 197 465Z" fill="#C3F53C" fill-opacity="0.25"/>
<path d="M197 60C161.399 60 126.598 70.5568 96.9974 90.3355C67.3966 110.114 44.3255 138.226 30.7018 171.117C17.078 204.008 13.5134 240.2 20.4587 275.116C27.4041 310.033 44.5474 342.106 69.7209 367.279C94.8943 392.453 126.967 409.596 161.884 416.541C196.8 423.487 232.992 419.922 265.883 406.298C298.774 392.675 326.886 369.603 346.665 340.003C366.443 310.402 377 275.601 377 240C377 192.261 358.036 146.477 324.279 112.721C290.523 78.9642 244.739 60 197 60V60ZM197 405C164.366 405 132.465 395.323 105.331 377.192C78.1969 359.062 57.0484 333.293 44.56 303.143C32.0715 272.993 28.8039 239.817 35.1705 207.81C41.5371 175.803 57.2518 146.403 80.3275 123.327C103.403 100.252 132.803 84.537 164.81 78.1704C196.817 71.8039 229.993 75.0714 260.143 87.5599C290.293 100.048 316.062 121.197 334.193 148.331C352.323 175.465 362 207.366 362 240C362 283.761 344.616 325.729 313.673 356.673C282.729 387.616 240.761 405 197 405Z" fill="#C3F53C" fill-opacity="0.25"/>
<path d="M217.702 109.8C215.68 106.073 212.69 102.962 209.047 100.793C205.403 98.6247 201.242 97.4801 197.002 97.4801C192.762 97.4801 188.601 98.6247 184.958 100.793C181.314 102.962 178.324 106.073 176.302 109.8L110.152 227.925C108.09 231.615 107.007 235.773 107.007 240C107.007 244.228 108.09 248.385 110.152 252.075L176.302 370.2C178.324 373.927 181.314 377.039 184.958 379.207C188.601 381.376 192.762 382.52 197.002 382.52C201.242 382.52 205.403 381.376 209.047 379.207C212.69 377.039 215.68 373.927 217.702 370.2L283.852 252.075C285.915 248.385 286.998 244.228 286.998 240C286.998 235.773 285.915 231.615 283.852 227.925L217.702 109.8ZM189.352 117.3C190.12 115.994 191.216 114.91 192.532 114.158C193.847 113.405 195.337 113.009 196.852 113.009C198.368 113.009 199.857 113.405 201.173 114.158C202.488 114.91 203.584 115.994 204.352 117.3L270.502 234.75L199.477 256.725C197.858 257.176 196.146 257.176 194.527 256.725L123.502 234.75L189.352 117.3ZM204.352 363.15C203.556 364.421 202.45 365.469 201.139 366.195C199.827 366.921 198.352 367.302 196.852 367.302C195.353 367.302 193.878 366.921 192.566 366.195C191.254 365.469 190.148 364.421 189.352 363.15L127.027 251.475L190.102 271.05C194.596 272.451 199.409 272.451 203.902 271.05L266.977 251.475L204.352 363.15Z" fill="#C3F53C" fill-opacity="0.25"/>
</svg>
