<svg width="361" height="361" viewBox="0 0 361 361" fill="none" xmlns="http://www.w3.org/2000/svg">
<path d="M180.5 0C80.9889 0 0 80.9889 0 180.5C0 280.011 80.9889 361 180.5 361C280.011 361 361 280.011 361 180.5C361 80.9889 280.011 0 180.5 0ZM180.5 343.931C90.4316 343.931 17.0694 270.568 17.0694 180.5C17.0694 90.4316 90.4316 17.0694 180.5 17.0694C270.568 17.0694 343.931 90.4316 343.931 180.5C343.931 270.568 270.568 343.931 180.5 343.931Z" fill="#C3F53C" fill-opacity="0.25"/>
<path d="M249.141 128.929C249.141 101.69 230.982 78.8098 206.286 71.1831V51.5714C206.286 46.8501 202.291 42.8551 197.57 42.8551C192.848 42.8551 188.853 46.8501 188.853 51.5714V68.6408H171.784V51.5714C171.784 46.8501 167.789 42.8551 163.068 42.8551C158.346 42.8551 154.351 46.8501 154.351 51.5714V68.6408H137.282H120.212C115.491 68.6408 111.496 72.6358 111.496 77.3571C111.496 82.0784 115.491 86.0734 120.212 86.0734H128.929V180.5V274.927H120.212C115.491 274.927 111.496 278.922 111.496 283.643C111.496 288.364 115.491 292.359 120.212 292.359H137.282H154.351V309.429C154.351 314.15 158.346 318.145 163.068 318.145C167.789 318.145 171.784 314.15 171.784 309.429V292.359H188.853V309.429C188.853 314.15 192.848 318.145 197.57 318.145C202.291 318.145 206.286 314.15 206.286 309.429V289.817C230.982 282.553 249.141 259.31 249.141 232.071C249.141 210.281 237.519 191.032 219.723 180.5C237.519 169.968 249.141 150.719 249.141 128.929ZM232.072 128.929C232.072 152.535 212.823 171.784 189.216 171.784H145.998V86.0734H188.853C212.823 86.0734 232.072 105.322 232.072 128.929ZM232.072 232.071C232.072 255.678 212.823 274.927 189.216 274.927H145.998V189.216H188.853C212.823 189.216 232.072 208.465 232.072 232.071Z" fill="#C3F53C" fill-opacity="0.25"/>
</svg>
