<svg width="685" height="840" viewBox="0 0 685 840" fill="none" xmlns="http://www.w3.org/2000/svg">
<path d="M399.022 795.994H398.284C388.6 795.44 378.915 794.517 369.323 793.224C367.516 792.986 365.775 792.392 364.198 791.478C362.621 790.564 361.24 789.348 360.135 787.898C359.029 786.448 358.221 784.794 357.756 783.031C357.29 781.268 357.178 779.43 357.424 777.623C357.651 775.822 358.234 774.084 359.139 772.511C360.044 770.938 361.253 769.562 362.695 768.461C364.138 767.361 365.785 766.56 367.541 766.104C369.296 765.649 371.125 765.547 372.92 765.807C382.143 766.915 390.905 767.838 399.852 768.299C403.522 768.41 406.997 769.974 409.514 772.649C412.03 775.324 413.382 778.889 413.272 782.562C413.162 786.234 411.599 789.713 408.927 792.232C406.254 794.751 402.691 796.104 399.022 795.994ZM455.101 794.886C451.431 795.057 447.844 793.763 445.129 791.287C442.413 788.812 440.791 785.357 440.62 781.685C440.449 778.012 441.742 774.422 444.216 771.704C446.689 768.986 450.14 767.363 453.809 767.192C463.033 766.361 471.703 765.161 480.558 763.591C482.374 763.276 484.235 763.322 486.035 763.727C487.834 764.132 489.535 764.887 491.043 765.95C492.55 767.013 493.834 768.363 494.82 769.922C495.806 771.481 496.476 773.22 496.791 775.038C497.106 776.857 497.06 778.72 496.655 780.52C496.251 782.321 495.496 784.024 494.434 785.533C493.372 787.042 492.024 788.326 490.466 789.313C488.908 790.3 487.171 790.971 485.354 791.286C476.13 793.04 466.077 794.332 456.484 795.255L455.101 794.886ZM316.749 781.593C315.408 781.59 314.073 781.404 312.783 781.039C303.559 778.269 294.336 775.038 285.112 771.807C281.688 770.485 278.928 767.856 277.44 764.497C275.953 761.139 275.859 757.326 277.18 753.898C278.501 750.471 281.128 747.709 284.484 746.22C287.84 744.731 291.649 744.637 295.074 745.959C303.375 749.19 311.953 752.052 320.53 754.637C323.728 755.57 326.481 757.626 328.285 760.428C330.09 763.23 330.824 766.589 330.353 769.888C329.882 773.188 328.237 776.207 325.721 778.391C323.206 780.575 319.987 781.777 316.657 781.777L316.749 781.593ZM538.112 777.069C534.829 777.084 531.648 775.93 529.137 773.813C526.626 771.696 524.949 768.754 524.406 765.514C523.862 762.273 524.488 758.945 526.171 756.124C527.854 753.302 530.484 751.172 533.592 750.113C542.078 747.159 550.564 743.928 558.772 740.328C562.025 739.487 565.473 739.86 568.471 741.376C571.47 742.892 573.815 745.449 575.069 748.568C576.322 751.688 576.399 755.158 575.284 758.33C574.169 761.502 571.939 764.16 569.011 765.807C559.787 769.592 551.025 773.192 541.801 776.331C540.342 776.809 538.817 777.058 537.282 777.069H538.112ZM239.087 748.175C236.661 748.165 234.279 747.529 232.17 746.329C223.684 741.436 215.475 736.174 207.451 730.727C205.891 729.725 204.549 728.418 203.503 726.886C202.458 725.354 201.73 723.627 201.365 721.808C200.999 719.988 201.003 718.114 201.375 716.297C201.747 714.479 202.481 712.755 203.532 711.226C204.583 709.698 205.93 708.396 207.493 707.399C209.057 706.402 210.805 705.73 212.633 705.422C214.461 705.114 216.332 705.177 218.136 705.607C219.939 706.037 221.638 706.826 223.131 707.926C230.509 713.003 238.165 717.803 246.005 722.327C248.647 723.849 250.713 726.202 251.881 729.02C253.05 731.838 253.256 734.963 252.467 737.91C251.678 740.858 249.939 743.462 247.519 745.318C245.1 747.174 242.136 748.178 239.087 748.175ZM613.006 740.513C610.08 740.4 607.265 739.362 604.966 737.546C602.667 735.731 601.004 733.232 600.214 730.409C599.424 727.587 599.55 724.587 600.572 721.84C601.595 719.094 603.462 716.743 605.904 715.126C613.56 710.326 621.031 705.156 628.133 699.802C631.081 697.599 634.782 696.657 638.423 697.185C642.064 697.713 645.347 699.667 647.548 702.618C649.75 705.568 650.69 709.273 650.163 712.917C649.635 716.561 647.683 719.846 644.735 722.05C636.987 727.773 628.963 733.405 620.754 738.574C618.423 739.999 615.737 740.735 613.006 740.697V740.513ZM171.572 698.14C168.128 698.097 164.831 696.744 162.348 694.355C155.338 687.709 148.421 680.785 141.964 673.585C139.889 670.819 138.924 667.376 139.258 663.933C139.592 660.491 141.2 657.298 143.768 654.983C146.335 652.668 149.675 651.398 153.131 651.424C156.587 651.45 159.908 652.769 162.44 655.122C168.436 661.768 174.8 668.231 181.348 674.416C183.344 676.303 184.734 678.742 185.34 681.423C185.947 684.104 185.742 686.904 184.753 689.468C183.764 692.032 182.035 694.244 179.786 695.821C177.537 697.398 174.87 698.27 172.125 698.325L171.572 698.14ZM678.309 687.801C674.842 687.699 671.544 686.279 669.085 683.832C666.494 681.235 665.039 677.716 665.039 674.046C665.039 670.377 666.494 666.857 669.085 664.261C675.357 657.799 681.445 651.06 687.532 644.229C689.893 641.413 693.274 639.651 696.932 639.331C700.591 639.011 704.226 640.158 707.04 642.521C709.853 644.884 711.613 648.268 711.933 651.93C712.253 655.591 711.107 659.23 708.746 662.045C702.474 669.431 695.925 676.723 689.1 683.647C687.715 685.088 686.03 686.206 684.165 686.924C682.301 687.642 680.301 687.941 678.309 687.801V687.801ZM117.061 633.797C114.777 633.806 112.527 633.246 110.514 632.166C108.501 631.086 106.788 629.521 105.532 627.612C100.182 619.581 95.1091 611.18 90.4051 602.687C89.3926 601.093 88.7168 599.308 88.4193 597.442C88.1218 595.577 88.2088 593.67 88.675 591.839C89.1412 590.009 89.9768 588.293 91.1303 586.798C92.2837 585.302 93.7307 584.059 95.3822 583.144C97.0337 582.229 98.8547 581.663 100.733 581.478C102.612 581.294 104.508 581.497 106.306 582.074C108.103 582.65 109.763 583.589 111.185 584.832C112.606 586.075 113.758 587.596 114.571 589.302C118.998 597.148 123.794 604.903 128.59 612.38C129.596 613.895 130.294 615.594 130.644 617.379C130.993 619.165 130.988 621.001 130.628 622.784C130.269 624.567 129.561 626.262 128.547 627.772C127.533 629.281 126.231 630.576 124.716 631.582C122.422 633.022 119.77 633.79 117.061 633.797V633.797ZM729.499 621.335C726.957 621.351 724.463 620.647 722.305 619.304C719.29 617.334 717.155 614.273 716.347 610.762C715.539 607.251 716.12 603.563 717.969 600.472C722.673 592.81 727.193 584.871 731.067 576.839C731.884 575.215 733.014 573.767 734.39 572.58C735.767 571.392 737.363 570.487 739.089 569.917C740.815 569.347 742.636 569.123 744.448 569.257C746.261 569.392 748.029 569.882 749.652 570.7C751.275 571.519 752.721 572.649 753.908 574.026C755.095 575.404 755.998 577.002 756.568 578.73C757.138 580.457 757.362 582.279 757.227 584.093C757.093 585.907 756.603 587.677 755.786 589.302C751.451 597.887 746.562 606.472 741.674 614.873C740.412 616.86 738.667 618.495 736.602 619.626C734.538 620.756 732.221 621.344 729.868 621.335H729.499ZM79.5214 558.838C76.6702 558.817 73.8942 557.92 71.5685 556.269C69.2427 554.618 67.4793 552.292 66.5163 549.606C63.1959 540.375 60.2444 531.144 57.2929 521.912C56.3105 518.424 56.724 514.69 58.4459 511.502C60.1677 508.314 63.0624 505.922 66.5163 504.834C70.0021 503.801 73.7548 504.192 76.9529 505.923C80.1509 507.653 82.5338 510.581 83.5797 514.065C85.9778 522.651 88.8371 531.236 91.8808 539.729C92.5127 541.431 92.8015 543.242 92.7303 545.057C92.6592 546.872 92.2297 548.655 91.4665 550.303C90.7033 551.951 89.6215 553.431 88.2837 554.658C86.9459 555.886 85.3785 556.835 83.672 557.453C82.3817 558.158 80.9762 558.627 79.5214 558.838ZM764.64 545.083C762.415 545.106 760.216 544.592 758.231 543.584C756.247 542.575 754.535 541.103 753.24 539.29C751.945 537.478 751.107 535.38 750.795 533.175C750.484 530.969 750.709 528.72 751.451 526.62C754.218 518.127 756.616 509.357 758.645 500.68C759.063 498.91 759.825 497.24 760.888 495.764C761.951 494.289 763.293 493.038 764.839 492.082C766.385 491.126 768.104 490.485 769.898 490.194C771.691 489.903 773.525 489.968 775.293 490.387C777.062 490.805 778.73 491.568 780.204 492.631C781.678 493.695 782.928 495.039 783.883 496.586C784.838 498.134 785.479 499.854 785.77 501.649C786.061 503.444 785.995 505.279 785.577 507.049C783.364 516.281 780.781 525.512 777.83 534.744C777.077 537.681 775.376 540.288 772.991 542.157C770.606 544.027 767.67 545.056 764.64 545.083V545.083ZM60.0599 477.047C56.6626 477.046 53.3844 475.795 50.8499 473.53C48.3154 471.266 46.702 468.148 46.3169 464.769C45.2101 455.538 44.4722 445.476 44.0111 435.69C43.8643 432.018 45.1812 428.437 47.672 425.737C50.1628 423.036 53.6235 421.436 57.2929 421.289C60.9622 421.142 64.5395 422.46 67.2379 424.953C69.9363 427.446 71.5347 430.91 71.6815 434.583C71.6815 443.814 72.7883 453.045 73.8029 461.538C74.0219 463.345 73.8831 465.177 73.3943 466.93C72.9055 468.682 72.0763 470.321 70.9541 471.753C69.8319 473.185 68.4388 474.381 66.8544 475.274C65.2699 476.166 63.5253 476.738 61.7201 476.955L60.0599 477.047ZM781.15 462H780.043C776.396 461.693 773.016 459.962 770.634 457.181C768.252 454.4 767.06 450.792 767.315 447.137C767.961 437.906 768.33 429.136 768.33 420.089V418.52C768.33 414.847 769.787 411.325 772.382 408.728C774.976 406.132 778.495 404.673 782.165 404.673C785.834 404.673 789.353 406.132 791.948 408.728C794.542 411.325 796 414.847 796 418.52V420.089C796 429.782 796 439.568 794.893 449.261C794.616 452.722 793.049 455.953 790.503 458.312C787.958 460.672 784.62 461.988 781.15 462V462ZM59.8754 392.856H58.3074C56.5068 392.661 54.7624 392.112 53.1747 391.24C51.5869 390.367 50.1871 389.19 49.0557 387.774C47.9242 386.359 47.0835 384.733 46.5818 382.991C46.0802 381.25 45.9275 379.426 46.1325 377.625C47.2393 367.932 48.715 358.238 50.5597 348.73C50.8085 346.859 51.4368 345.059 52.4061 343.44C53.3753 341.821 54.665 340.417 56.196 339.315C57.727 338.213 59.4669 337.436 61.3088 337.031C63.1508 336.627 65.056 336.604 66.9073 336.963C68.7586 337.322 70.517 338.056 72.0745 339.12C73.632 340.185 74.9557 341.556 75.9642 343.151C76.9728 344.746 77.645 346.53 77.9395 348.394C78.234 350.259 78.1445 352.164 77.6767 353.992C76.0165 363.223 74.633 371.809 73.6184 380.671C73.2124 384.032 71.5898 387.129 69.0575 389.374C66.5252 391.619 63.2586 392.858 59.8754 392.856ZM777.276 376.609C773.978 376.604 770.79 375.42 768.288 373.27C765.785 371.121 764.131 368.147 763.626 364.885C762.242 356.115 760.397 347.161 758.368 338.483C757.821 336.681 757.647 334.787 757.857 332.915C758.067 331.044 758.656 329.235 759.588 327.599C760.52 325.963 761.776 324.534 763.278 323.401C764.781 322.267 766.499 321.452 768.327 321.006C770.155 320.559 772.054 320.491 773.91 320.804C775.765 321.118 777.537 321.807 779.117 322.83C780.697 323.852 782.053 325.186 783.1 326.751C784.147 328.315 784.865 330.077 785.209 331.929C787.514 341.16 789.451 351.038 790.927 360.546C791.216 362.347 791.147 364.187 790.723 365.961C790.3 367.735 789.53 369.408 788.459 370.883C787.388 372.358 786.036 373.608 784.481 374.558C782.926 375.509 781.198 376.144 779.398 376.424L777.276 376.609ZM78.968 310.973C77.3641 310.968 75.773 310.687 74.264 310.143C70.8158 308.893 68.0045 306.324 66.4479 303C64.8913 299.677 64.7169 295.87 65.9629 292.418C69.1911 283.187 72.8805 273.955 76.9388 265.37C77.6506 263.656 78.6994 262.102 80.023 260.802C81.3466 259.502 82.9179 258.481 84.6435 257.801C86.3691 257.12 88.2138 256.794 90.0679 256.841C91.922 256.889 93.7476 257.309 95.4363 258.076C97.125 258.844 98.6422 259.944 99.8978 261.31C101.153 262.676 102.122 264.281 102.745 266.03C103.368 267.778 103.634 269.634 103.527 271.487C103.419 273.34 102.94 275.153 102.119 276.817C98.4295 285.033 95.0168 293.434 91.9731 301.834C91.0179 304.518 89.2537 306.839 86.9241 308.476C84.5945 310.113 81.8145 310.986 78.968 310.973ZM754.494 295.834C751.747 295.839 749.061 295.024 746.778 293.496C744.494 291.967 742.718 289.792 741.674 287.249C738.261 279.033 734.479 270.724 730.421 262.785C729.561 261.167 729.028 259.395 728.852 257.57C728.677 255.746 728.862 253.904 729.397 252.151C730.478 248.611 732.92 245.645 736.186 243.907C739.452 242.169 743.273 241.8 746.811 242.882C750.348 243.964 753.311 246.408 755.048 249.677C759.475 258.262 763.533 267.216 767.223 276.171C767.977 277.87 768.381 279.703 768.412 281.562C768.442 283.42 768.099 285.266 767.402 286.989C766.705 288.712 765.668 290.277 764.354 291.59C763.039 292.904 761.474 293.939 759.752 294.634C758.1 295.389 756.31 295.798 754.494 295.834ZM117.061 235.737C114.364 235.754 111.726 234.949 109.498 233.429C107.971 232.447 106.655 231.171 105.624 229.677C104.593 228.182 103.867 226.498 103.49 224.721C103.113 222.945 103.091 221.111 103.425 219.326C103.76 217.54 104.444 215.839 105.439 214.32C110.789 206.197 116.415 198.165 122.318 190.503C124.569 187.59 127.884 185.69 131.533 185.223C135.183 184.755 138.869 185.758 141.78 188.011C144.691 190.263 146.589 193.581 147.056 197.234C147.523 200.886 146.521 204.575 144.27 207.489C138.828 214.597 133.479 221.982 128.59 229.46C127.338 231.38 125.629 232.958 123.617 234.054C121.604 235.15 119.352 235.728 117.061 235.737V235.737ZM713.542 221.982C711.35 221.975 709.19 221.454 707.236 220.46C705.282 219.466 703.588 218.027 702.29 216.259C697.032 208.874 691.406 201.765 685.687 194.934C684.512 193.546 683.622 191.94 683.067 190.208C682.513 188.475 682.304 186.65 682.454 184.837C682.604 183.024 683.109 181.259 683.941 179.641C684.773 178.023 685.915 176.586 687.301 175.41C690.102 173.035 693.731 171.871 697.39 172.174C699.201 172.324 700.965 172.829 702.581 173.662C704.198 174.494 705.634 175.637 706.809 177.025C712.989 184.41 719.076 192.072 724.703 200.011C725.776 201.476 726.549 203.138 726.977 204.903C727.405 206.667 727.48 208.499 727.197 210.293C726.914 212.087 726.279 213.806 725.328 215.353C724.378 216.9 723.131 218.243 721.659 219.305C719.312 221.05 716.465 221.989 713.542 221.982V221.982ZM170.465 171.209C167.719 171.154 165.052 170.282 162.803 168.705C160.555 167.128 158.825 164.917 157.836 162.353C156.847 159.789 156.643 156.988 157.249 154.307C157.856 151.627 159.245 149.187 161.241 147.3C168.251 140.561 175.63 134.099 183.101 128.006C184.466 126.564 186.125 125.433 187.965 124.689C189.805 123.945 191.784 123.606 193.767 123.696C195.75 123.785 197.69 124.3 199.456 125.206C201.222 126.112 202.773 127.388 204.003 128.947C205.233 130.506 206.114 132.311 206.585 134.241C207.056 136.171 207.107 138.179 206.734 140.13C206.361 142.081 205.573 143.929 204.424 145.549C203.274 147.168 201.79 148.521 200.072 149.515C193.154 155.147 186.329 161.147 179.78 167.332C177.284 169.768 173.951 171.155 170.465 171.209V171.209ZM656.818 160.224C653.438 160.205 650.173 158.996 647.594 156.808C640.954 150.9 633.851 145.269 626.565 139.915C623.636 137.71 621.693 134.438 621.157 130.809C620.622 127.18 621.538 123.487 623.706 120.529C625.873 117.636 629.092 115.713 632.665 115.177C636.239 114.642 639.879 115.536 642.798 117.667C650.638 123.39 658.201 129.576 665.488 136.13C667.653 137.982 669.194 140.458 669.901 143.22C670.608 145.982 670.446 148.895 669.437 151.561C668.428 154.227 666.621 156.516 664.264 158.116C661.906 159.716 659.113 160.549 656.265 160.501L656.818 160.224ZM237.704 120.436C234.647 120.46 231.669 119.471 229.234 117.622C226.799 115.773 225.044 113.169 224.243 110.217C223.443 107.265 223.641 104.13 224.808 101.303C225.975 98.4753 228.045 96.1143 230.694 94.5883C239.18 89.6957 247.757 85.3569 256.427 80.9258C258.063 80.1317 259.838 79.6678 261.652 79.5605C263.467 79.4532 265.284 79.7046 267.002 80.3004C268.719 80.8961 270.302 81.8246 271.661 83.0327C273.019 84.2409 274.127 85.7051 274.92 87.3416C275.714 88.9782 276.177 90.7552 276.285 92.5711C276.392 94.387 276.141 96.2062 275.545 97.9249C274.95 99.6437 274.022 101.228 272.815 102.588C271.608 103.948 270.145 105.057 268.51 105.851C260.486 109.728 252.461 113.974 244.621 118.59C242.512 119.79 240.13 120.426 237.704 120.436V120.436ZM587.457 112.774C585.208 112.803 582.987 112.263 581.001 111.205C573.161 107.051 564.952 103.174 556.651 99.6656C554.827 99.071 553.146 98.103 551.715 96.8233C550.285 95.5435 549.136 93.98 548.342 92.2319C547.547 90.4839 547.125 88.5896 547.101 86.6694C547.078 84.7492 547.453 82.8451 548.204 81.078C548.956 79.3109 550.066 77.7196 551.464 76.405C552.863 75.0904 554.52 74.0814 556.329 73.442C558.138 72.8026 560.06 72.5469 561.974 72.691C563.887 72.8351 565.749 73.3759 567.443 74.2791C576.666 78.064 585.244 82.3105 593.729 86.7416C596.418 88.1926 598.552 90.4936 599.797 93.2857C601.043 96.0777 601.33 99.2038 600.614 102.176C599.897 105.149 598.218 107.8 595.839 109.717C593.459 111.635 590.512 112.709 587.457 112.774ZM314.72 87.1109C311.434 87.0619 308.274 85.8441 305.803 83.6757C303.333 81.5072 301.714 78.5296 301.237 75.2759C300.76 72.0221 301.456 68.7046 303.199 65.9172C304.943 63.1298 307.621 61.0545 310.754 60.0627C319.977 57.2933 329.201 54.8008 338.424 52.6776C342.008 51.8818 345.76 52.5436 348.857 54.5172C351.953 56.4908 354.139 59.6146 354.934 63.2014C355.729 66.7882 355.068 70.5442 353.096 73.6431C351.124 76.742 348.003 78.93 344.419 79.7257C335.196 81.6643 326.802 83.9722 318.225 86.557C317.083 86.8829 315.906 87.0689 314.72 87.1109V87.1109ZM508.412 82.7721C507.291 82.7544 506.176 82.5994 505.092 82.3105C495.868 80.095 487.475 78.2487 478.621 76.6793C476.739 76.4777 474.919 75.892 473.273 74.9585C471.627 74.025 470.19 72.7635 469.05 71.252C467.911 69.7404 467.093 68.011 466.647 66.1706C466.202 64.3302 466.138 62.4179 466.461 60.5519C466.783 58.686 467.484 56.906 468.521 55.3221C469.558 53.7382 470.909 52.3839 472.489 51.3431C474.07 50.3022 475.847 49.5969 477.71 49.2707C479.574 48.9445 481.485 49.0044 483.325 49.4466C492.548 51.1082 502.417 53.1391 511.825 55.447C513.642 55.6713 515.397 56.2515 516.99 57.1546C518.582 58.0577 519.982 59.2659 521.108 60.7103C522.235 62.1548 523.066 63.8071 523.554 65.5729C524.042 67.3387 524.178 69.1836 523.954 71.002C523.73 72.8204 523.15 74.5769 522.248 76.1711C521.345 77.7653 520.138 79.166 518.695 80.2932C517.252 81.4204 515.601 82.2522 513.837 82.7408C512.072 83.2295 510.229 83.3656 508.412 83.1413V82.7721ZM397.454 72.3405C393.785 72.4507 390.222 71.0975 387.55 68.5785C384.877 66.0596 383.314 62.5813 383.204 58.9088C383.094 55.2363 384.446 51.6704 386.963 48.9957C389.479 46.3209 392.955 44.7564 396.624 44.6462C404.28 44.6462 412.027 44.0923 419.683 44H425.678C429.34 44.0727 432.825 45.5861 435.38 48.2123C437.935 50.8386 439.354 54.3664 439.329 58.0318C439.342 59.8611 438.986 61.6743 438.281 63.3624C437.577 65.0504 436.539 66.5784 435.229 67.8547C433.92 69.1309 432.366 70.1289 430.661 70.7887C428.956 71.4486 427.136 71.7566 425.309 71.6943H419.683C412.857 71.6943 405.386 71.6943 398.284 72.3405H397.454Z" fill="#C3F53C" fill-opacity="0.25"/>
<path d="M420 840C336.932 840 255.729 815.368 186.661 769.217C117.592 723.067 63.7596 657.472 31.9708 580.727C0.181979 503.982 -8.13542 419.534 8.07037 338.062C24.2762 256.59 64.2773 181.753 123.015 123.015C181.753 64.2773 256.59 24.2762 338.062 8.07037C419.534 -8.13542 503.982 0.181974 580.727 31.9708C657.472 63.7596 723.067 117.592 769.217 186.661C815.367 255.729 840 336.932 840 420C839.878 531.353 795.589 638.111 716.85 716.85C638.111 795.589 531.354 839.878 420 840V840ZM420 27.6925C342.409 27.6925 266.56 50.7009 202.046 93.8082C137.531 136.916 87.248 198.186 57.5551 269.87C27.8623 341.555 20.0933 420.435 35.2306 496.536C50.3678 572.636 87.7315 642.538 142.597 697.404C197.462 752.269 267.364 789.632 343.465 804.77C419.565 819.907 498.445 812.138 570.13 782.445C641.815 752.752 703.085 702.469 746.192 637.955C789.299 573.44 812.308 497.591 812.308 420C812.186 315.991 770.814 216.277 697.269 142.732C623.723 69.1862 524.009 27.8146 420 27.6925V27.6925Z" fill="#C3F53C" fill-opacity="0.25"/>
<path d="M440 560.212V622.31C440 626.72 438.322 630.951 435.332 634.079C432.343 637.206 428.285 638.975 424.045 639V639C419.789 639 415.708 637.242 412.699 634.112C409.69 630.982 408 626.736 408 622.31V559" fill="#C3F53C" fill-opacity="0.25"/>
<path d="M408.004 280.253V218.083C407.956 215.857 408.336 213.644 409.121 211.574C409.906 209.503 411.08 207.617 412.574 206.025C414.069 204.434 415.853 203.17 417.824 202.307C419.794 201.444 421.91 200.999 424.047 201C428.286 201.025 432.344 202.796 435.333 205.927C438.322 209.058 440 213.294 440 217.709V281" fill="#C3F53C" fill-opacity="0.25"/>
<path d="M514.82 320.316C490.763 297.9 459.282 285.087 426.369 284.314C391.139 284.933 357.541 299.234 332.72 324.177C307.9 349.121 293.815 382.737 293.462 417.878C293.666 434.678 297.222 451.269 303.925 466.682C310.627 482.096 320.34 496.024 332.498 507.654C357.57 532.105 390.868 546.376 425.909 547.686C457.798 546.583 488.394 534.842 512.8 514.341C519.925 508.429 527.917 503.64 536.497 500.142C551.56 500.142 524.005 528.815 524.005 528.815C496.853 551.963 462.363 564.781 426.644 565C345.633 565 275 497.577 275 416.412C275.532 376.57 291.787 338.542 320.243 310.573C348.698 282.604 387.06 266.948 427.012 267C462.927 267.095 497.515 280.554 524.005 304.742C524.005 304.742 536.956 317.568 536.956 320.591C536.497 335.523 516.565 322.331 514.82 320.316Z" fill="#C3F53C" fill-opacity="0.25"/>
<path d="M424.882 573C383.528 572.769 343.895 556.489 314.412 527.621C284.928 498.753 267.918 459.575 267 418.416C267.465 377.036 284.303 337.509 313.862 308.412C343.42 279.315 383.313 262.997 424.882 263C462.212 263.158 498.141 277.168 525.647 302.293C540.228 316.716 540.228 320.229 540.228 321.709C540.474 323.925 540.026 326.162 538.945 328.115C537.865 330.068 536.204 331.641 534.191 332.618C524.904 336.594 510.138 324.945 510.045 324.76C486.583 302.929 455.873 290.456 423.767 289.719C389.493 290.464 356.86 304.475 332.792 328.78C308.725 353.084 295.119 385.768 294.861 419.895C295.035 436.237 298.493 452.378 305.033 467.368C311.573 482.357 321.061 495.892 332.939 507.172C357.41 530.999 389.931 544.879 424.139 546.096C455.262 544.988 485.115 533.53 508.93 513.552C508.93 513.552 528.712 498.112 535.956 498.112C537.696 497.905 539.457 498.261 540.979 499.126C542.501 499.992 543.702 501.322 544.407 502.919C547.751 510.593 536.327 524.554 525.833 534.909C497.724 559.021 461.983 572.507 424.882 573ZM424.882 272.245C401.203 272.104 377.843 277.68 356.804 288.495C335.764 299.311 317.673 315.044 304.08 334.345C290.487 353.647 281.797 375.942 278.756 399.319C275.715 422.697 278.414 446.459 286.62 468.571C294.826 490.683 308.295 510.484 325.873 526.278C343.451 542.072 364.613 553.388 387.547 559.255C410.481 565.123 434.501 565.367 457.551 559.968C480.6 554.568 501.991 543.685 519.889 528.252C526.023 522.292 531.249 515.471 535.399 508.004C528.17 511.466 521.349 515.714 515.06 520.671C489.524 542.064 457.497 554.277 424.139 555.341C387.517 554.092 352.679 539.29 326.438 513.829C313.667 501.684 303.471 487.115 296.453 470.981C289.434 454.847 285.735 437.476 285.574 419.895C285.859 383.261 300.502 348.185 326.385 322.142C352.268 296.099 387.344 281.148 424.139 280.474C458.702 281.168 491.784 294.572 517.01 318.103C519.703 320.507 528.99 325.222 531.127 324.112C531.32 323.323 531.32 322.498 531.127 321.709C527.457 317.281 523.55 313.053 519.425 309.042C493.727 285.54 460.149 272.42 425.253 272.245H424.882Z" fill="#C3F53C" fill-opacity="0.25"/>
</svg>
