<svg width="140" height="121" viewBox="0 0 140 121" fill="none" xmlns="http://www.w3.org/2000/svg">
<path d="M38.4615 120.156L101.538 120.156L140 60.1555L101.538 0.155518L38.4615 0.155518L0 60.1555L38.4615 120.156Z" fill="black"/>
<path d="M41.9272 112.656L98.0726 112.656L132.308 60.1555L98.0726 7.65552L41.9272 7.65552L7.69224 60.1555L41.9272 112.656Z" fill="black" stroke="white" stroke-width="0.752747"/>
<path d="M85.2461 78.0706V84.1526H51.1797C51.1328 82.6292 51.3789 81.1643 51.918 79.7581C52.7852 77.4377 54.168 75.1526 56.0664 72.9026C57.9883 70.6526 60.7539 68.051 64.3633 65.0979C69.9648 60.5042 73.75 56.8713 75.7188 54.1995C77.6875 51.5042 78.6719 48.9612 78.6719 46.5706C78.6719 44.0627 77.7695 41.9534 75.9648 40.2424C74.1836 38.5081 71.8516 37.6409 68.9688 37.6409C65.9219 37.6409 63.4844 38.5549 61.6562 40.3831C59.8281 42.2112 58.9023 44.7424 58.8789 47.9768L52.375 47.3088C52.8203 42.4573 54.4961 38.7659 57.4023 36.2346C60.3086 33.6799 64.2109 32.4026 69.1094 32.4026C74.0547 32.4026 77.9688 33.7737 80.8516 36.5159C83.7344 39.2581 85.1758 42.6565 85.1758 46.7112C85.1758 48.7737 84.7539 50.801 83.9102 52.7932C83.0664 54.7854 81.6602 56.8831 79.6914 59.0862C77.7461 61.2893 74.5 64.3127 69.9531 68.1565C66.1562 71.344 63.7188 73.512 62.6406 74.6604C61.5625 75.7854 60.6719 76.9221 59.9688 78.0706H85.2461Z" fill="white"/>
</svg>
