<svg width="140" height="120" viewBox="0 0 140 120" fill="none" xmlns="http://www.w3.org/2000/svg">
<path d="M101.538 0H38.4615L0 60L38.4615 120H101.538L140 60L101.538 0Z" fill="black"/>
<path d="M98.0728 7.5H41.9274L7.69238 60L41.9274 112.5H98.0728L132.308 60L98.0728 7.5Z" fill="black" stroke="white" stroke-width="0.752747"/>
<path d="M53.0234 70.3945L59.3516 69.5508C60.0781 73.1367 61.3086 75.7266 63.043 77.3203C64.8008 78.8906 66.9336 79.6758 69.4414 79.6758C72.418 79.6758 74.9258 78.6445 76.9648 76.582C79.0273 74.5195 80.0586 71.9648 80.0586 68.918C80.0586 66.0117 79.1094 63.6211 77.2109 61.7461C75.3125 59.8477 72.8984 58.8984 69.9688 58.8984C68.7734 58.8984 67.2852 59.1328 65.5039 59.6016L66.207 54.0469C66.6289 54.0938 66.9688 54.1172 67.2266 54.1172C69.9219 54.1172 72.3477 53.4141 74.5039 52.0078C76.6602 50.6016 77.7383 48.4336 77.7383 45.5039C77.7383 43.1836 76.9531 41.2617 75.3828 39.7383C73.8125 38.2148 71.7852 37.4531 69.3008 37.4531C66.8398 37.4531 64.7891 38.2266 63.1484 39.7734C61.5078 41.3203 60.4531 43.6406 59.9844 46.7344L53.6562 45.6094C54.4297 41.3672 56.1875 38.0859 58.9297 35.7656C61.6719 33.4219 65.082 32.25 69.1602 32.25C71.9727 32.25 74.5625 32.8594 76.9297 34.0781C79.2969 35.2734 81.1016 36.9141 82.3438 39C83.6094 41.0859 84.2422 43.3008 84.2422 45.6445C84.2422 47.8711 83.6445 49.8984 82.4492 51.7266C81.2539 53.5547 79.4844 55.0078 77.1406 56.0859C80.1875 56.7891 82.5547 58.2539 84.2422 60.4805C85.9297 62.6836 86.7734 65.4492 86.7734 68.7773C86.7734 73.2773 85.1328 77.0977 81.8516 80.2383C78.5703 83.3555 74.4219 84.9141 69.4062 84.9141C64.8828 84.9141 61.1211 83.5664 58.1211 80.8711C55.1445 78.1758 53.4453 74.6836 53.0234 70.3945Z" fill="white"/>
</svg>
