<svg width="140" height="121" viewBox="0 0 140 121" fill="none" xmlns="http://www.w3.org/2000/svg">
<path d="M38.4615 120.156L101.538 120.156L140 60.1555L101.538 0.155518L38.4615 0.155518L0 60.1555L38.4615 120.156Z" fill="black"/>
<path d="M41.9272 112.656L98.0726 112.656L132.308 60.1555L98.0726 7.65552L41.9272 7.65552L7.69224 60.1555L41.9272 112.656Z" fill="black" stroke="white" stroke-width="0.752747"/>
<path fill-rule="evenodd" clip-rule="evenodd" d="M65.2322 69.1415C65.255 70.1072 65.9609 70.8998 66.7864 70.8998H72.8095C73.6349 70.8998 74.3408 70.1072 74.3636 69.1415L76.9994 36.7584C77.0222 35.7926 76.3618 35 75.542 35H64.4637C63.6382 35 62.9778 35.7926 63.0006 36.7584L65.2322 69.1415Z" fill="white"/>
<path fill-rule="evenodd" clip-rule="evenodd" d="M65.2778 77.0674V83.235C65.2778 84.2007 65.9609 85 66.7864 85H72.8095C73.635 85 74.3181 84.2007 74.3181 83.235V77.0674C74.3181 76.1083 73.635 75.309 72.8095 75.309H66.7864C65.9609 75.309 65.2778 76.1083 65.2778 77.0674Z" fill="white"/>
</svg>
