<svg width="140" height="120" viewBox="0 0 140 120" fill="none" xmlns="http://www.w3.org/2000/svg">
<path d="M101.538 0H38.4615L0 60L38.4615 120H101.538L140 60L101.538 0Z" fill="#020D1F"/>
<path d="M98.0728 7.5H41.9274L7.69238 60L41.9274 112.5H98.0728L132.308 60L98.0728 7.5Z" fill="#020D1F" stroke="white" stroke-width="0.752747"/>
<path d="M52.9883 70.5L59.6328 69.9375C60.125 73.1719 61.2617 75.6094 63.043 77.25C64.8477 78.8672 67.0156 79.6758 69.5469 79.6758C72.5938 79.6758 75.1719 78.5273 77.2812 76.2305C79.3906 73.9336 80.4453 70.8867 80.4453 67.0898C80.4453 63.4805 79.4258 60.6328 77.3867 58.5469C75.3711 56.4609 72.7227 55.418 69.4414 55.418C67.4023 55.418 65.5625 55.8867 63.9219 56.8242C62.2812 57.7383 60.9922 58.9336 60.0547 60.4102L54.1133 59.6367L59.1055 33.1641H84.7344V39.2109H64.168L61.3906 53.0625C64.4844 50.9062 67.7305 49.8281 71.1289 49.8281C75.6289 49.8281 79.4258 51.3867 82.5195 54.5039C85.6133 57.6211 87.1602 61.6289 87.1602 66.5273C87.1602 71.1914 85.8008 75.2227 83.082 78.6211C79.7773 82.793 75.2656 84.8789 69.5469 84.8789C64.8594 84.8789 61.0273 83.5664 58.0508 80.9414C55.0977 78.3164 53.4102 74.8359 52.9883 70.5Z" fill="white"/>
</svg>
