<svg width="140" height="120" viewBox="0 0 140 120" fill="none" xmlns="http://www.w3.org/2000/svg">
<path d="M101.538 0H38.4615L0 60L38.4615 120H101.538L140 60L101.538 0Z" fill="black"/>
<path d="M98.0728 7.5H41.9274L7.69238 60L41.9274 112.5H98.0728L132.308 60L98.0728 7.5Z" fill="black" stroke="white" stroke-width="0.752747"/>
<path d="M100 40.825L97 37.825C95.9 36.725 94 36.725 92.9 37.825L59.8 70.925L47.1 58.225C45.9 57.025 43.9 57.025 42.7 58.225L39.9 61.025C38.7 62.225 38.7 64.225 39.9 65.425L54.6 80.125L57.6 83.125C58.7 84.225 60.6 84.225 61.7 83.125L66.8 78.025L99.9 44.925C101.1 43.825 101.1 41.925 100 40.825Z" fill="white"/>
</svg>
