<svg width="29" height="29" viewBox="0 0 29 29" fill="none" xmlns="http://www.w3.org/2000/svg">
<path d="M14.5 0C6.49263 0 0 6.49263 0 14.5C0 22.5074 6.49263 29 14.5 29C22.5074 29 29 22.5074 29 14.5C29 6.49263 22.5074 0 14.5 0ZM14.5 26.5402C7.85201 26.5402 2.45982 21.148 2.45982 14.5C2.45982 7.85201 7.85201 2.45982 14.5 2.45982C21.148 2.45982 26.5402 7.85201 26.5402 14.5C26.5402 21.148 21.148 26.5402 14.5 26.5402Z" fill="black"/>
<path d="M12.9463 8.80357C12.9463 9.2156 13.11 9.61076 13.4013 9.90211C13.6927 10.1935 14.0878 10.3571 14.4999 10.3571C14.9119 10.3571 15.307 10.1935 15.5984 9.90211C15.8898 9.61076 16.0534 9.2156 16.0534 8.80357C16.0534 8.39154 15.8898 7.99638 15.5984 7.70503C15.307 7.41368 14.9119 7.25 14.4999 7.25C14.0878 7.25 13.6927 7.41368 13.4013 7.70503C13.11 7.99638 12.9463 8.39154 12.9463 8.80357V8.80357ZM15.2766 12.4286H13.7231C13.5807 12.4286 13.4641 12.5451 13.4641 12.6875V21.4911C13.4641 21.6335 13.5807 21.75 13.7231 21.75H15.2766C15.4191 21.75 15.5356 21.6335 15.5356 21.4911V12.6875C15.5356 12.5451 15.4191 12.4286 15.2766 12.4286Z" fill="black"/>
</svg>
