<svg width="105" height="97" viewBox="0 0 105 97" fill="none" xmlns="http://www.w3.org/2000/svg">
<path d="M30.4102 82.3644L76.733 49.9063L61.3624 43.125L76.8862 15.8884L29.923 48.064L45.934 55.1278L30.4102 82.3644ZM77.2634 5.18224C89.8435 10.7324 98.1178 19.8191 102.21 32.2254C106.303 44.6317 105.059 56.8582 98.2503 68.8041C91.4417 80.75 81.0488 88.9401 67.3004 93.4753C53.552 98.0105 40.3258 97.6116 27.7457 92.0615C15.1656 86.5114 6.89125 77.4246 2.7988 65.0183C-1.29366 52.612 -0.0499215 40.3855 6.75875 28.4396C13.5674 16.4937 23.9603 8.30364 37.7087 3.76845C51.4571 -0.766743 64.6833 -0.367878 77.2634 5.18224Z" fill="black"/>
</svg>
