<svg xmlns="http://www.w3.org/2000/svg" xmlns:xlink="http://www.w3.org/1999/xlink" version="1.1" x="0px" y="0px" viewBox="0 0 160 200" style="enable-background:new 0 0 160 160;" xml:space="preserve"><polygon points="106.627,107.311 106.622,107.316 106.628,107.31 "/><path d="M105.633,108.43c0.125-0.155,0.259-0.306,0.392-0.456C105.893,108.126,105.758,108.275,105.633,108.43z"/><path d="M108.035,106.103c1.905-1.444,4.142-2.349,6.522-2.625C112.176,103.753,109.941,104.658,108.035,106.103z"/><path d="M104.789,109.616c0.064-0.102,0.123-0.206,0.191-0.306C104.912,109.41,104.853,109.515,104.789,109.616z"/><path d="M105.226,101.959c0,0.007-0.001,0.014-0.002,0.021c0.269-0.197,0.537-0.395,0.815-0.576c-0.269,0.177-0.54,0.35-0.801,0.544  C105.235,101.952,105.231,101.956,105.226,101.959z"/><path d="M104.083,110.876c0.1-0.208,0.208-0.413,0.32-0.616C104.289,110.462,104.185,110.668,104.083,110.876z"/><path d="M118.411,103.586c0.116,0.02,0.234,0.029,0.349,0.052C118.645,103.614,118.527,103.606,118.411,103.586z"/><path d="M122.251,99.442c0.54,0.19,1.064,0.418,1.584,0.657c-0.519-0.239-1.044-0.467-1.584-0.659V99.442z"/><path d="M100.248,126.133c0.175,0.297,0.34,0.599,0.532,0.887C100.588,126.733,100.423,126.43,100.248,126.133z"/><path d="M100.866,127.136c0.311,0.458,0.639,0.906,0.993,1.338C101.505,128.042,101.177,127.593,100.866,127.136z"/><path d="M97.986,113.604c-0.047,0.268-0.085,0.539-0.12,0.81C97.901,114.143,97.939,113.873,97.986,113.604z"/><path d="M114.99,135.175v0.004c0.315,0.017,0.625,0.034,0.938,0.042C115.614,135.212,115.302,135.194,114.99,135.175z"/><path d="M102.802,115.181c0.053-0.439,0.126-0.874,0.222-1.303C102.929,114.307,102.855,114.741,102.802,115.181z"/><path d="M103.086,113.631c0.095-0.393,0.206-0.78,0.336-1.161C103.292,112.851,103.181,113.238,103.086,113.631z"/><path d="M103.508,112.228c0.144-0.396,0.304-0.784,0.485-1.163C103.813,111.445,103.652,111.832,103.508,112.228z"/><path d="M122.251,134.167v0.001c0.335-0.119,0.655-0.271,0.982-0.408C122.906,133.896,122.586,134.049,122.251,134.167z"/><path d="M106.379,101.174c0.52-0.323,1.057-0.615,1.604-0.883c-0.084,0.041-0.171,0.076-0.255,0.118  C107.267,100.643,106.819,100.899,106.379,101.174z"/><path d="M97.714,116.398c0.008-0.372,0.024-0.743,0.054-1.111c-0.005,0.058-0.015,0.115-0.019,0.173  C97.728,115.765,97.722,116.082,97.714,116.398z"/><path d="M117.249,139.399c0,1.38,1.12,2.5,2.5,2.5c0.864,0,1.625-0.439,2.074-1.105c-0.449,0.664-1.21,1.101-2.072,1.101  c-1.381,0-2.5-1.119-2.5-2.5v-4.22c-0.305,0.018-0.609,0.036-0.915,0.045c0.307-0.008,0.614-0.024,0.913-0.04V139.399z"/><path d="M98.145,112.797c0.026-0.117,0.059-0.232,0.087-0.348c-0.007,0.004-0.013,0.008-0.02,0.012  c-0.001,0.003-0.001,0.005-0.002,0.008C98.183,112.577,98.168,112.689,98.145,112.797z"/><path d="M109.989,139.399c0,1.38,1.12,2.5,2.5,2.5c1.036,0,1.925-0.631,2.304-1.53c-0.38,0.897-1.268,1.526-2.303,1.526  c-1.381,0-2.5-1.119-2.5-2.5v-5.228c-1.643-0.579-3.186-1.408-4.614-2.432c1.429,1.026,2.972,1.857,4.612,2.434V139.399z"/><path d="M127.858,107.998c-0.788,0.152-1.634-0.076-2.245-0.687c-1.839-1.838-4.119-3.067-6.599-3.61  c2.481,0.543,4.76,1.774,6.594,3.608C126.222,107.922,127.069,108.151,127.858,107.998z"/><path d="M129.41,104.096c0.656,0.918,0.612,2.17-0.124,3.047C130.026,106.27,130.07,105.011,129.41,104.096z"/><path d="M119.749,91.709c-1.38,0-2.5,1.12-2.5,2.5v4.225c0.001,0,0.001,0,0.002,0v-4.221c0-1.381,1.119-2.5,2.5-2.5  c0.863,0,1.623,0.437,2.073,1.102C121.375,92.148,120.613,91.709,119.749,91.709z"/><path d="M116.037,98.383c0.028,0,0.055-0.004,0.084-0.004c0.018,0,0.036,0.003,0.055,0.003c-0.019,0-0.037-0.003-0.056-0.003  C116.091,98.379,116.064,98.383,116.037,98.383z"/><path d="M125.609,126.299c-2.53,2.53-5.9,3.93-9.49,3.93c-3.58,0-6.96-1.4-9.49-3.93c-2.54-2.54-3.93-5.91-3.93-9.49  c0-0.504,0.029-1.004,0.084-1.498c-0.054,0.493-0.089,0.99-0.089,1.494c0,3.586,1.396,6.957,3.933,9.493  c2.535,2.536,5.907,3.933,9.493,3.933s6.958-1.396,9.492-3.933c0.7-0.7,1.708-0.889,2.584-0.586  C127.32,125.407,126.311,125.597,125.609,126.299z"/><path d="M129.271,126.447c0.73,0.852,0.804,2.074,0.199,2.992C130.079,128.524,130.005,127.296,129.271,126.447z"/><path d="M112.489,91.709c-1.38,0-2.5,1.12-2.5,2.5v5.23c-0.566,0.206-1.122,0.442-1.669,0.695c0.547-0.254,1.101-0.492,1.67-0.692  v-5.228c0-1.381,1.119-2.5,2.5-2.5c1.035,0,1.923,0.629,2.303,1.526C114.414,92.34,113.525,91.709,112.489,91.709z"/><path d="M122.229,79.349c-0.929-0.15-1.859-0.27-2.808-0.35l-7.239-18.993c-2.643-6.918-8.068-12.524-14.887-15.379L65.066,31.119  l-8.743-6.24l2.944-4.119c1.124-1.572,0.761-3.758-0.812-4.882L44.489,5.894c-0.755-0.54-1.693-0.758-2.609-0.605  c-0.916,0.152-1.733,0.662-2.273,1.417L6.614,52.864c-0.54,0.755-0.758,1.693-0.605,2.609s0.662,1.733,1.417,2.273l13.966,9.982  c0.617,0.44,1.328,0.652,2.032,0.652c1.092,0,2.167-0.509,2.85-1.465l4.177-5.844l6.159,4.403c1.624,1.158,2.873,2.746,3.615,4.596  l4.249,10.566c1.239,3.092,3.33,5.751,6.045,7.687l28.491,20.335c0,0,0,0,0,0l4.07,2.91c0.007,0,0.007,0,0.007,0  c0.002,0.001,0.003,0.002,0.005,0.004c0.023,0.017,0.049,0.033,0.073,0.049c0.041,0.028,0.081,0.056,0.125,0.087  c0.15,0.103,0.305,0.191,0.457,0.287c0.165,0.105,0.328,0.215,0.497,0.313c0.108,0.063,0.22,0.117,0.329,0.177  c0.257,0.14,0.516,0.275,0.779,0.399c0.01,0.004,0.019,0.01,0.028,0.014c0-0.001,0-0.001,0-0.002  c1.864,0.869,3.896,1.328,5.993,1.328c2.421,0,4.764-0.632,6.839-1.764c0.007-0.004,0.013-0.008,0.02-0.012  c-0.028,0.116-0.061,0.231-0.087,0.348c-0.059,0.267-0.111,0.536-0.159,0.807c-0.047,0.268-0.085,0.539-0.12,0.81  c-0.037,0.29-0.074,0.579-0.098,0.872c-0.03,0.368-0.046,0.739-0.054,1.111c-0.003,0.136-0.02,0.27-0.02,0.407  c0,3.337,0.901,6.528,2.553,9.329c0.175,0.297,0.34,0.599,0.532,0.887c0.027,0.04,0.059,0.076,0.086,0.115  c0.311,0.458,0.639,0.906,0.993,1.338c0.386,0.47,0.797,0.924,1.233,1.359c0.711,0.711,1.484,1.329,2.285,1.903  c1.428,1.024,2.971,1.853,4.614,2.432v5.228c0,1.381,1.119,2.5,2.5,2.5c1.035,0,1.923-0.629,2.303-1.526  c0.127-0.299,0.197-0.629,0.197-0.974v-4.216v-0.004c0.312,0.019,0.624,0.038,0.938,0.046c0.064,0.002,0.127,0.009,0.192,0.009  c0.072,0,0.143-0.008,0.215-0.01c0.306-0.009,0.611-0.026,0.915-0.045v4.22c0,1.381,1.119,2.5,2.5,2.5  c0.863,0,1.623-0.437,2.072-1.101c0.27-0.399,0.428-0.881,0.428-1.399v-5.227v-0.001c0.335-0.118,0.655-0.271,0.982-0.407  c2.179-0.91,4.196-2.207,5.916-3.927c0.122-0.122,0.229-0.255,0.321-0.394c0.604-0.917,0.531-2.139-0.199-2.992  c-0.042-0.049-0.076-0.103-0.122-0.15c-0.277-0.277-0.605-0.466-0.952-0.586c-0.876-0.303-1.885-0.113-2.584,0.586  c-2.534,2.536-5.906,3.933-9.492,3.933s-6.958-1.396-9.493-3.933c-2.536-2.536-3.933-5.907-3.933-9.493  c0-0.503,0.034-1.001,0.089-1.494c0.005-0.044,0.014-0.086,0.019-0.13c0.053-0.44,0.127-0.874,0.222-1.303  c0.018-0.083,0.042-0.165,0.062-0.248c0.095-0.393,0.206-0.78,0.336-1.161c0.028-0.081,0.057-0.161,0.087-0.242  c0.143-0.396,0.305-0.783,0.485-1.163c0.03-0.063,0.058-0.126,0.089-0.189c0.102-0.207,0.206-0.413,0.32-0.616  c0.122-0.218,0.252-0.432,0.386-0.644c0.065-0.101,0.123-0.206,0.191-0.306c0.204-0.302,0.424-0.594,0.654-0.88  c0.125-0.156,0.26-0.305,0.392-0.456c0.195-0.222,0.386-0.447,0.597-0.658c0.002-0.002,0.003-0.004,0.005-0.005  c0,0,0.001,0,0.001-0.001c0.442-0.442,0.918-0.836,1.407-1.207c1.906-1.446,4.141-2.35,6.522-2.625  c0.516-0.06,1.036-0.099,1.563-0.099c0.777,0,1.54,0.078,2.291,0.206c0.116,0.02,0.234,0.029,0.349,0.052  c0.086,0.017,0.169,0.045,0.254,0.064c2.48,0.543,4.76,1.772,6.599,3.61c0.61,0.61,1.457,0.839,2.245,0.687  c0.473-0.092,0.924-0.32,1.291-0.687c0.052-0.052,0.091-0.113,0.138-0.169c0.736-0.877,0.78-2.129,0.124-3.047  c-0.079-0.111-0.162-0.22-0.261-0.32c-1.562-1.562-3.365-2.782-5.313-3.677c-0.52-0.239-1.044-0.467-1.584-0.657V99.44v-5.227  c0-0.518-0.158-0.999-0.427-1.398c-0.449-0.665-1.21-1.102-2.073-1.102c-1.381,0-2.5,1.119-2.5,2.5v4.221c-0.001,0-0.001,0-0.002,0  c-0.357-0.022-0.714-0.049-1.074-0.052c-0.018,0-0.036-0.003-0.055-0.003c-0.028,0-0.056,0.004-0.084,0.004  c-0.351,0.004-0.698,0.03-1.046,0.051v-4.221c0-0.346-0.07-0.675-0.197-0.974c-0.38-0.897-1.268-1.526-2.303-1.526  c-1.381,0-2.5,1.119-2.5,2.5v5.228c-0.569,0.2-1.123,0.438-1.67,0.692c-0.112,0.052-0.225,0.102-0.336,0.157  c-0.548,0.268-1.084,0.56-1.604,0.883c-0.116,0.072-0.225,0.156-0.34,0.231c-0.278,0.181-0.546,0.379-0.815,0.576  c0-0.007,0.001-0.014,0.002-0.021c0.253-4.053-1.513-8.143-5.055-10.666l-0.774-0.553c0.001,0,0.001-0.001,0.002-0.002  c1.383-0.888,2.844-1.664,4.368-2.329c0.044-0.019,0.088-0.038,0.132-0.057c0.457-0.197,0.921-0.383,1.389-0.56  c0.073-0.027,0.146-0.054,0.219-0.081c0.532-0.195,1.068-0.374,1.611-0.539c0.038-0.012,0.076-0.024,0.115-0.035  c0.567-0.169,1.141-0.324,1.726-0.46c0.552-0.14,1.106-0.25,1.675-0.346c0.064-0.011,0.127-0.025,0.191-0.036  c0.185-0.033,0.37-0.062,0.554-0.088c0.43-0.07,0.86-0.12,1.3-0.17c0.152-0.017,0.311-0.03,0.468-0.045  c1.029-0.095,2.07-0.146,3.125-0.139c0.127,0,0.251-0.006,0.379,0.007c0.15,0.013,0.299,0.016,0.447,0.01  c1.493,0.042,2.957,0.2,4.391,0.447c14.5,2.57,25.55,15.26,25.55,30.49c0,17.06-13.89,30.95-30.95,30.95  c-17.07,0-30.96-13.89-30.96-30.95c0-0.43,0.01-0.86,0.03-1.28c-1.14-0.45-2.23-1.03-3.25-1.74c-0.1-0.06-0.19-0.12-0.28-0.19  l-0.17-0.12l-2.94-2.1c-0.26,1.77-0.39,3.59-0.39,5.43c0,20.92,17.03,37.95,37.96,37.95c20.92,0,37.95-17.03,37.95-37.95  C154.039,97.969,140.239,82.289,122.229,79.349z M22.615,59.999l-8.271-5.912l28.922-40.462l8.271,5.912L22.615,59.999z   M91.372,107.225c-1.502,0-2.94-0.455-4.158-1.317c-0.053-0.037-0.105-0.072-0.16-0.106l-32.47-23.176  c-1.624-1.158-2.873-2.746-3.614-4.596l-4.249-10.567c-1.24-3.092-3.331-5.75-6.043-7.685l-6.135-4.386l17.714-24.815l9.061,6.467  c0.212,0.151,0.44,0.279,0.681,0.379l32.592,13.66c5.061,2.119,9.089,6.282,11.051,11.418l6.315,16.57  c-2.897,0.31-5.726,0.949-8.463,1.915l-2.479-5.934c-0.985-2.374-2.609-4.411-4.688-5.886l-5.711-4.081  c-3.537-2.526-8.269-2.772-12.051-0.625l-0.387,0.219c-3.404,1.956-5.564,5.6-5.636,9.511c-0.001,0.021-0.001,0.043-0.001,0.064  v0.149c0,3.611,1.752,7.017,4.686,9.108l18.884,13.482c2.31,1.645,2.847,4.865,1.204,7.173  C95.946,106.083,93.725,107.225,91.372,107.225z M81.294,77.816c-1.097-0.782-1.752-2.058-1.752-3.411v-0.112  c0.036-1.454,0.848-2.81,2.106-3.533l0.37-0.209c1.423-0.809,3.202-0.715,4.528,0.232l5.72,4.087  c1.014,0.719,1.803,1.711,2.286,2.875l2.583,6.181c-0.002,0.001-0.005,0.002-0.007,0.004c-1.31,0.76-2.56,1.59-3.77,2.5  c0,0,0,0-0.001,0L81.294,77.816z"/><path d="M20.614,49.737c-1.575,0.576-2.388,2.326-1.812,3.901c0.45,1.231,1.619,1.997,2.86,1.997c0.346,0,0.698-0.06,1.041-0.185  c1.575-0.576,2.388-2.326,1.812-3.901C23.94,49.975,22.189,49.164,20.614,49.737z"/><text x="0" y="175" fill="#000000" font-size="5px" font-weight="bold" font-family="'Helvetica Neue', Helvetica, Arial-Unicode, Arial, Sans-serif">Created by Symbolon</text><text x="0" y="180" fill="#000000" font-size="5px" font-weight="bold" font-family="'Helvetica Neue', Helvetica, Arial-Unicode, Arial, Sans-serif">from the Noun Project</text></svg>