<svg width="29" height="27" viewBox="0 0 29 27" fill="none" xmlns="http://www.w3.org/2000/svg">
<path d="M14.5 0.202393C6.49263 0.202393 0 6.14544 0 13.475C0 20.8046 6.49263 26.7476 14.5 26.7476C22.5074 26.7476 29 20.8046 29 13.475C29 6.14544 22.5074 0.202393 14.5 0.202393ZM14.5 24.496C7.85201 24.496 2.45982 19.5603 2.45982 13.475C2.45982 7.38975 7.85201 2.454 14.5 2.454C21.148 2.454 26.5402 7.38975 26.5402 13.475C26.5402 19.5603 21.148 24.496 14.5 24.496Z" fill="black"/>
<path d="M12.9463 8.2607C12.9463 8.63786 13.11 8.99957 13.4013 9.26626C13.6927 9.53295 14.0878 9.68277 14.4999 9.68277C14.9119 9.68277 15.3071 9.53295 15.5984 9.26626C15.8898 8.99957 16.0534 8.63786 16.0534 8.2607C16.0534 7.88354 15.8898 7.52183 15.5984 7.25514C15.3071 6.98845 14.9119 6.83862 14.4999 6.83862C14.0878 6.83862 13.6927 6.98845 13.4013 7.25514C13.11 7.52183 12.9463 7.88354 12.9463 8.2607ZM15.2766 11.5789H13.7231C13.5807 11.5789 13.4641 11.6855 13.4641 11.8159V19.8743C13.4641 20.0047 13.5807 20.1113 13.7231 20.1113H15.2766C15.4191 20.1113 15.5356 20.0047 15.5356 19.8743V11.8159C15.5356 11.6855 15.4191 11.5789 15.2766 11.5789Z" fill="black"/>
</svg>
